<?xml version="1.0" encoding="UTF-8"?>
<!DOCTYPE svg PUBLIC "-//W3C//DTD SVG 1.1//EN" "http://www.w3.org/Graphics/SVG/1.1/DTD/svg11.dtd">
<!-- Creator: CorelDRAW 2026 (Оценочная версия) -->
<svg xmlns="http://www.w3.org/2000/svg" xml:space="preserve" width="50mm" height="50mm" version="1.1" style="shape-rendering:geometricPrecision; text-rendering:geometricPrecision; image-rendering:optimizeQuality; fill-rule:evenodd; clip-rule:evenodd"
viewBox="0 0 10114.82 10114.82"
 xmlns:xlink="http://www.w3.org/1999/xlink"
 xmlns:xodm="http://www.corel.com/coreldraw/odm/2003">
 <defs>
  <style type="text/css">
   <![CDATA[
    .str0 {stroke:#A9ABAE;stroke-width:202.3;stroke-miterlimit:22.9256}
    .fil0 {fill:#FEFEFE}
    .fil2 {fill:#D2D3D5}
    .fil1 {fill:#BDBFC1}
   ]]>
  </style>
 </defs>
 <g id="Слой_x0020_1">
  <metadata id="CorelCorpID_0Corel-Layer"/>
  <path class="fil0" d="M1011.48 0l8091.86 0c556.32,0 1011.48,455.17 1011.48,1011.46l0 8091.88c0,556.3 -455.17,1011.48 -1011.48,1011.48l-8091.86 0c-556.32,0 -1011.48,-455.19 -1011.48,-1011.48l0 -8091.88c0,-556.3 455.17,-1011.46 1011.48,-1011.46z"/>
  <path class="fil1 str0" d="M1857.69 1746.08l6567.78 0c394.28,0 716.84,322.54 716.84,716.82l0 5734.84c0,394.28 -322.56,716.84 -716.84,716.84l-6567.78 0c-394.28,0 -716.84,-322.56 -716.84,-716.84l0 -5734.84c0,-394.28 322.56,-716.82 716.84,-716.82z"/>
  <path class="fil2 str0" d="M1140.85 3437.24l8001.45 0 0 -974.34c0,-394.28 -322.56,-716.82 -716.84,-716.82l-6567.78 0c-394.28,0 -716.84,322.54 -716.84,716.82l0 974.34z"/>
  <rect class="fil0" x="1576.05" y="3841.82" width="1218.31" height="1004.42"/>
  <rect class="fil0" x="1576.05" y="5006.04" width="1218.31" height="1004.42"/>
  <rect class="fil0" x="3054.23" y="3841.82" width="1218.31" height="1004.42"/>
  <rect class="fil0" x="3054.23" y="5006.04" width="1218.31" height="1004.42"/>
  <rect class="fil0" x="4532.41" y="3841.82" width="1218.31" height="1004.42"/>
  <rect class="fil0" x="4532.41" y="5006.04" width="1218.31" height="1004.42"/>
  <rect class="fil0" x="7488.75" y="3841.82" width="1218.31" height="1004.42"/>
  <rect class="fil0" x="7488.75" y="5006.04" width="1218.31" height="1004.42"/>
  <rect class="fil0" x="6010.57" y="3841.82" width="1218.31" height="1004.42"/>
  <rect class="fil0" x="6010.57" y="5006.04" width="1218.31" height="1004.42"/>
  <rect class="fil0" x="1576.05" y="6259.18" width="1218.31" height="1004.42"/>
  <rect class="fil0" x="3054.23" y="6259.18" width="1218.31" height="1004.42"/>
  <rect class="fil0" x="4532.41" y="6259.18" width="1218.31" height="1004.42"/>
  <rect class="fil0" x="7488.75" y="6259.18" width="1218.31" height="1004.42"/>
  <rect class="fil0" x="6010.57" y="6259.18" width="1218.31" height="1004.42"/>
  <rect class="fil0" x="1576.05" y="7494.69" width="1218.31" height="1004.42"/>
  <rect class="fil0" x="3054.23" y="7494.69" width="1218.31" height="1004.42"/>
 </g>
</svg>
