<?xml version="1.0" encoding="UTF-8"?>
<!DOCTYPE svg PUBLIC "-//W3C//DTD SVG 1.1//EN" "http://www.w3.org/Graphics/SVG/1.1/DTD/svg11.dtd">
<!-- Creator: CorelDRAW 2026 (Оценочная версия) -->
<svg xmlns="http://www.w3.org/2000/svg" xml:space="preserve" width="50mm" height="50mm" version="1.1" style="shape-rendering:geometricPrecision; text-rendering:geometricPrecision; image-rendering:optimizeQuality; fill-rule:evenodd; clip-rule:evenodd"
viewBox="0 0 605.1 605.1"
 xmlns:xlink="http://www.w3.org/1999/xlink"
 xmlns:xodm="http://www.corel.com/coreldraw/odm/2003">
 <defs>
  <style type="text/css">
   <![CDATA[
    .fil0 {fill:#FEFEFE}
    .fil2 {fill:#E6E7E8}
    .fil1 {fill:#BDBFC1}
   ]]>
  </style>
 </defs>
 <g id="Слой_x0020_1">
  <metadata id="CorelCorpID_0Corel-Layer"/>
  <path class="fil0" d="M60.51 0l484.08 0c33.28,0 60.51,27.23 60.51,60.51l0 484.08c0,33.28 -27.23,60.51 -60.51,60.51l-484.08 0c-33.28,0 -60.51,-27.23 -60.51,-60.51l0 -484.08c0,-33.28 27.23,-60.51 60.51,-60.51z"/>
  <path class="fil1" d="M476.82 214.48c0,106.8 -37.12,330.01 -174.28,330.01 -137.15,0 -174.28,-223.21 -174.28,-330.01 0,-84.99 78.03,-153.88 174.28,-153.88 96.25,0 174.28,68.9 174.28,153.88z"/>
  <path class="fil2" d="M411.93 308.83c-32.61,0 -100.76,-11.33 -100.76,-53.21 0,-41.88 68.15,-53.21 100.76,-53.21 25.95,0 46.98,23.82 46.98,53.21 0,29.39 -21.04,53.21 -46.98,53.21z"/>
  <path class="fil2" d="M192.08 204.75c32.61,0 100.76,11.33 100.76,53.21 0,41.88 -68.15,53.21 -100.76,53.21 -25.95,0 -46.98,-23.82 -46.98,-53.21 0,-29.39 21.04,-53.21 46.98,-53.21z"/>
 </g>
</svg>
