<?xml version="1.0" encoding="UTF-8"?>
<!DOCTYPE svg PUBLIC "-//W3C//DTD SVG 1.1//EN" "http://www.w3.org/Graphics/SVG/1.1/DTD/svg11.dtd">
<!-- Creator: CorelDRAW 2026 (Оценочная версия) -->
<svg xmlns="http://www.w3.org/2000/svg" xml:space="preserve" width="50mm" height="50mm" version="1.1" style="shape-rendering:geometricPrecision; text-rendering:geometricPrecision; image-rendering:optimizeQuality; fill-rule:evenodd; clip-rule:evenodd"
viewBox="0 0 2205.39 2205.39"
 xmlns:xlink="http://www.w3.org/1999/xlink"
 xmlns:xodm="http://www.corel.com/coreldraw/odm/2003">
 <defs>
  <style type="text/css">
   <![CDATA[
    .fil3 {fill:#96989A}
    .fil2 {fill:#727376}
    .fil1 {fill:#606062}
    .fil4 {fill:#606062}
    .fil0 {fill:#373435}
   ]]>
  </style>
 </defs>
 <g id="Слой_x0020_1">
  <metadata id="CorelCorpID_0Corel-Layer"/>
  <path class="fil0" d="M220.54 0l1764.32 0c121.3,0 220.54,99.24 220.54,220.54l0 1764.32c0,121.29 -99.24,220.54 -220.54,220.54l-1764.32 0c-121.3,0 -220.54,-99.25 -220.54,-220.54l0 -1764.32c0,-121.29 99.24,-220.54 220.54,-220.54z"/>
  <path class="fil1" d="M1227.75 495c68.16,19.88 131.59,50.84 188.23,90.78l207.07 -165.35 223.2 279.53 -207.16 165.42c26.03,63.43 42.14,131.98 46.37,203.74l258.46 58.75 -79.29 348.81 -258.7 -58.8c-34.31,61.39 -78.47,116.53 -130.35,163.27l115.2 238.78 -322.18 155.43 -115.28 -238.95c-33.99,5.6 -68.87,8.56 -104.44,8.56 -35.57,0 -70.46,-2.93 -104.46,-8.53l-115.27 238.93 -322.18 -155.43 115.21 -238.8c-51.87,-46.74 -96.03,-101.87 -130.33,-163.26l-258.72 58.81 -79.29 -348.82 258.45 -58.75c4.24,-71.76 20.34,-140.32 46.37,-203.76l-207.14 -165.4 223.2 -279.53 207.08 165.36c56.64,-39.94 120.06,-70.91 188.22,-90.79l0 -264.95 357.71 0 0 264.96zm-178.86 270.43c186.27,0 337.28,151 337.28,337.27 0,186.27 -151,337.27 -337.28,337.27 -186.27,0 -337.27,-151 -337.27,-337.27 0,-186.27 151,-337.27 337.27,-337.27z"/>
  <path class="fil2" d="M1329.03 495c68.16,19.88 131.59,50.84 188.23,90.78l207.07 -165.35 223.2 279.53 -207.15 165.42c26.02,63.43 42.13,131.98 46.37,203.74l258.46 58.75 -79.29 348.81 -258.7 -58.8c-34.32,61.39 -78.47,116.53 -130.36,163.27l115.2 238.78 -322.18 155.43 -115.28 -238.95c-33.99,5.6 -68.87,8.56 -104.43,8.56 -35.58,0 -70.47,-2.93 -104.46,-8.53l-115.27 238.93 -322.18 -155.43 115.21 -238.8c-51.87,-46.74 -96.03,-101.87 -130.33,-163.26l-258.72 58.81 -79.29 -348.82 258.45 -58.75c4.24,-71.76 20.34,-140.32 46.37,-203.76l-207.14 -165.4 223.2 -279.53 207.09 165.36c56.64,-39.94 120.06,-70.91 188.21,-90.79l0 -264.95 357.71 0 0 264.96zm-178.85 270.43c186.27,0 337.27,151 337.27,337.27 0,186.27 -151,337.27 -337.27,337.27 -186.27,0 -337.28,-151 -337.28,-337.27 0,-186.27 151,-337.27 337.28,-337.27z"/>
  <polygon class="fil3" points="506.98,1819.92 622.2,1581.12 723.48,1581.12 608.27,1819.92 "/>
  <polygon class="fil4" points="506.98,1819.92 608.27,1819.92 930.45,1975.35 829.17,1975.35 "/>
  <polygon class="fil3" points="1254.61,1736.4 1369.9,1975.35 1268.61,1975.35 1157.18,1744.39 "/>
  <polygon class="fil3" points="1707.23,1417.88 1695.38,1438.2 1864.64,1476.68 1965.93,1476.68 "/>
  <polygon class="fil3" points="1623.05,420.43 1724.34,420.43 1517.26,585.78 1460.63,550.13 "/>
  <polygon class="fil4" points="153.85,1127.86 255.14,1127.86 334.43,1476.68 233.14,1476.68 "/>
  <polygon class="fil3" points="153.85,1127.86 412.9,1060.04 513.75,1066.42 255.14,1127.86 "/>
  <polygon class="fil3" points="251.53,699.96 352.82,699.96 559.95,865.35 458.67,865.35 "/>
  <polygon class="fil4" points="251.53,699.96 474.74,420.42 576.02,420.42 352.82,699.96 "/>
  <polygon class="fil3" points="870.04,494.99 971.32,494.99 971.32,230.04 870.04,230.04 "/>
 </g>
</svg>
