<?xml version="1.0" encoding="UTF-8"?>
<!DOCTYPE svg PUBLIC "-//W3C//DTD SVG 1.1//EN" "http://www.w3.org/Graphics/SVG/1.1/DTD/svg11.dtd">
<!-- Creator: CorelDRAW 2026 (Оценочная версия) -->
<svg xmlns="http://www.w3.org/2000/svg" xml:space="preserve" width="50mm" height="50mm" version="1.1" style="shape-rendering:geometricPrecision; text-rendering:geometricPrecision; image-rendering:optimizeQuality; fill-rule:evenodd; clip-rule:evenodd"
viewBox="0 0 2207.98 2207.98"
 xmlns:xlink="http://www.w3.org/1999/xlink"
 xmlns:xodm="http://www.corel.com/coreldraw/odm/2003">
 <defs>
  <style type="text/css">
   <![CDATA[
    .fil0 {fill:#FEFEFE}
    .fil2 {fill:#E6E7E8}
    .fil1 {fill:#BDBFC1}
    .fil3 {fill:#A9ABAE}
   ]]>
  </style>
 </defs>
 <g id="Слой_x0020_1">
  <metadata id="CorelCorpID_0Corel-Layer"/>
  <path class="fil0" d="M220.8 0l1766.38 0c121.44,0 220.8,99.36 220.8,220.79l0 1766.39c0,121.43 -99.36,220.8 -220.8,220.8l-1766.38 0c-121.44,0 -220.8,-99.36 -220.8,-220.8l0 -1766.39c0,-121.43 99.36,-220.79 220.8,-220.79z"/>
  <path class="fil1" d="M1229.19 495.58c68.24,19.9 131.75,50.9 188.45,90.89l207.32 -165.55 223.46 279.86 -207.4 165.61c26.06,63.51 42.19,132.14 46.42,203.98l258.77 58.82 -79.38 349.22 -259 -58.87c-34.35,61.47 -78.56,116.67 -130.5,163.46l115.34 239.06 -322.56 155.61 -115.42 -239.23c-34.03,5.61 -68.95,8.57 -104.56,8.57 -35.61,0 -70.54,-2.94 -104.58,-8.54l-115.4 239.21 -322.56 -155.61 115.35 -239.08c-51.93,-46.8 -96.14,-101.99 -130.49,-163.45l-259.03 58.88 -79.38 -349.23 258.75 -58.82c4.24,-71.84 20.36,-140.49 46.42,-204l-207.38 -165.59 223.46 -279.86 207.32 165.55c56.71,-39.99 120.2,-71 188.44,-90.89l0 -265.26 358.13 0 0 265.27zm-179.07 270.75c186.49,0 337.67,151.18 337.67,337.67 0,186.49 -151.18,337.67 -337.67,337.67 -186.49,0 -337.67,-151.18 -337.67,-337.67 0,-186.49 151.18,-337.67 337.67,-337.67z"/>
  <path class="fil2" d="M1330.59 495.58c68.24,19.9 131.75,50.9 188.45,90.89l207.32 -165.55 223.46 279.86 -207.4 165.61c26.05,63.51 42.18,132.14 46.42,203.98l258.77 58.82 -79.38 349.22 -259 -58.87c-34.36,61.47 -78.56,116.67 -130.51,163.46l115.34 239.06 -322.55 155.61 -115.42 -239.23c-34.02,5.61 -68.95,8.57 -104.56,8.57 -35.62,0 -70.55,-2.94 -104.58,-8.54l-115.41 239.21 -322.55 -155.61 115.34 -239.08c-51.93,-46.8 -96.14,-101.99 -130.49,-163.45l-259.03 58.88 -79.38 -349.23 258.75 -58.82c4.24,-71.84 20.36,-140.49 46.42,-204l-207.38 -165.59 223.46 -279.86 207.33 165.55c56.71,-39.99 120.2,-71 188.43,-90.89l0 -265.26 358.13 0 0 265.27zm-179.06 270.75c186.49,0 337.67,151.18 337.67,337.67 0,186.49 -151.18,337.67 -337.67,337.67 -186.49,0 -337.67,-151.18 -337.67,-337.67 0,-186.49 151.18,-337.67 337.67,-337.67z"/>
  <polygon class="fil1" points="507.58,1822.05 622.93,1582.97 724.33,1582.97 608.99,1822.05 "/>
  <polygon class="fil3" points="507.58,1822.05 608.99,1822.05 931.54,1977.67 830.14,1977.67 "/>
  <polygon class="fil1" points="1256.08,1738.43 1371.5,1977.67 1270.09,1977.67 1158.54,1746.43 "/>
  <polygon class="fil1" points="1709.23,1419.54 1697.36,1439.89 1866.83,1478.41 1968.23,1478.41 "/>
  <polygon class="fil1" points="1624.95,420.92 1726.36,420.92 1519.04,586.47 1462.34,550.77 "/>
  <polygon class="fil3" points="154.03,1129.18 255.44,1129.18 334.82,1478.41 233.41,1478.41 "/>
  <polygon class="fil1" points="154.03,1129.18 413.38,1061.29 514.35,1067.67 255.44,1129.18 "/>
  <polygon class="fil1" points="251.83,700.78 353.23,700.78 560.61,866.37 459.21,866.37 "/>
  <polygon class="fil3" points="251.83,700.78 475.29,420.92 576.7,420.92 353.23,700.78 "/>
  <polygon class="fil1" points="871.06,495.57 972.46,495.57 972.46,230.31 871.06,230.31 "/>
 </g>
</svg>
